<?xml version="1.0" encoding="utf-8"?>
<!-- Generator: Adobe Illustrator 26.0.2, SVG Export Plug-In . SVG Version: 6.00 Build 0)  -->
<svg version="1.1" id="Layer_1" xmlns="http://www.w3.org/2000/svg" xmlns:xlink="http://www.w3.org/1999/xlink" x="0px" y="0px"
	 viewBox="0 0 468 144" style="enable-background:new 0 0 468 144;" xml:space="preserve">
<style type="text/css">
	.st0{fill:#FFFFFF;}
</style>
<g id="_x31_HB_1_">
	<path id="Marketing_5_" class="st0" d="M370,85.6c0.1,0.1,0.1,0.3,0.1,0.5c0,0.2-0.2,0.5-0.5,0.9c-0.1,0.1-0.2,0.2-0.5,0.4
		c-0.3,0.2-0.6,0.4-1,0.6c-0.4,0.2-0.9,0.3-1.4,0.4c-0.5,0.1-1.1,0-1.7-0.1c-0.6-0.1-1.3-0.4-1.9-0.9c-0.7-0.4-1.3-1.1-2-1.9
		c-0.9-1.2-1.6-2.6-2.1-4.3s-0.8-3.7-0.9-5.9c-0.1-2.3,0.1-4.9,0.4-7.8c0.3-2.9,0.9-6.2,1.7-9.9c0.3-1.5,0.6-2.6,0.7-3.4
		c0.2-0.8,0.3-1.4,0.4-1.7c0.1-0.4,0.1-0.5,0-0.6c-0.1,0-0.2,0-0.4,0.2c-0.2,0.1-0.5,0.5-1.1,1.1c-0.5,0.6-1.1,1.4-1.7,2.5
		c-0.6,1.1-1.3,2.3-2,3.8c-0.7,1.5-1.3,3.2-1.9,5.1c-0.6,1.9-1.1,3.4-1.4,4.4c-0.3,1-0.6,1.8-0.9,2.2c-0.2,0.4-0.5,0.7-0.7,0.7
		c-0.2,0-0.5,0-0.8,0c-0.3,0-0.6-0.1-1-0.2c-0.3-0.1-0.7-0.3-0.9-0.6c-0.3-0.3-0.5-0.7-0.7-1.3c-0.2-0.6-0.2-1.4-0.2-2.4
		c0-0.7,0-1.5,0.1-2.5c0.1-1,0.2-2,0.3-3.1c0.1-1.1,0.2-2.2,0.3-3.3c0.1-1.1,0.2-2.1,0.2-2.9c0.1-0.9,0.1-1.5,0.1-2.1
		c0-0.5,0-0.8-0.1-0.8c-0.1,0-0.3,0.3-0.5,0.9c-0.2,0.6-0.5,1.3-0.8,2.2c-0.3,0.9-0.6,2-1,3.3c-0.4,1.2-0.8,2.6-1.2,3.9
		c-0.4,1.4-0.8,2.8-1.3,4.2c-0.4,1.4-0.9,2.8-1.3,4.1c-0.6,2-1.2,3.7-1.5,5.1c-0.4,1.4-0.7,2.6-0.9,3.6c-0.2,0.9-0.3,1.7-0.4,2.1
		c-0.1,0.5-0.2,0.7-0.3,0.8c-0.1,0-0.3,0.1-0.6,0.2c-0.3,0.1-0.6,0.1-1,0.1c-0.4,0-0.8-0.1-1.2-0.2c-0.4-0.2-0.8-0.5-1.1-0.9
		c-0.3-0.4-0.6-1.1-0.7-1.9c-0.2-0.8-0.2-1.8-0.1-3.1c0.1-1.3,0.3-2.7,0.4-4.3c0.2-1.6,0.3-3.1,0.5-4.7c0.1-1.6,0.3-3.1,0.4-4.6
		c0.1-1.5,0.3-2.9,0.4-4.1c0.1-1.2,0.2-2.3,0.3-3.1c0.1-0.8,0.1-1.3,0.1-1.6c0-0.3,0.1-0.6,0-1c0-0.3,0-0.6,0-0.9s0-0.5,0.1-0.7
		c0-0.2,0.2-0.3,0.4-0.4c0.6-0.2,1.2-0.3,1.8-0.1c0.6,0.2,1.2,0.6,1.6,1.2c0.5,0.6,0.8,1.5,1,2.7c0.2,1.1,0.2,2.6,0,4.3
		c-0.2,1.7-0.4,3.4-0.6,4.9c-0.2,1.5-0.5,2.9-0.7,4.2c-0.2,1.3-0.4,2.4-0.6,3.3c-0.2,1-0.3,1.8-0.4,2.5c0.7-3.3,1.5-6.4,2.2-9.3
		c0.3-1.2,0.6-2.4,1-3.7c0.3-1.2,0.7-2.4,1-3.5c0.3-1.1,0.7-2.1,1-2.9c0.3-0.9,0.7-1.5,1-2c0.6-1,1.3-1.7,2-2.1
		c0.7-0.4,1.4-0.6,2-0.6s1.2,0.2,1.7,0.5c0.5,0.3,0.8,0.8,1,1.4c0.1,0.3,0.1,0.9,0.1,1.8c0,0.9,0,2,0,3.1c0,1.1,0,2.2-0.1,3.3
		c0,1.1,0,1.8,0,2.4c0.6-1.4,1.3-2.8,2-4.2c0.6-1.2,1.3-2.4,2.1-3.7c0.8-1.3,1.6-2.5,2.4-3.5c0.8-1,1.5-1.8,2.2-2.3
		c0.6-0.5,1.2-0.8,1.7-1c0.5-0.1,1-0.2,1.4-0.1c0.4,0.1,0.8,0.3,1.2,0.5c0.4,0.2,0.5,0.8,0.5,1.8c-0.1,1-0.2,2.2-0.5,3.5
		c-0.3,1.4-0.6,2.9-1,4.5s-0.7,3.2-1,4.7c-0.5,2.5-0.8,4.7-0.9,6.6s-0.1,3.6,0,5.1c0.1,1.5,0.3,2.7,0.5,3.8c0.3,1.1,0.5,2,0.8,2.7
		c0.3,0.7,0.6,1.4,1,2s0.9,1.1,1.4,1.5c0.5,0.4,1,0.6,1.5,0.6c0.5,0,1-0.1,1.5-0.5c0.1-0.1,0.3-0.1,0.4-0.1
		C369.8,85.4,369.9,85.5,370,85.6z M390.4,64c0,0.3,0,0.5,0,0.6c-0.1,0.3-0.2,0.5-0.5,0.6c-0.3,0.1-0.4,0.1-0.5-0.2
		c0-0.1-0.1-0.3-0.2-0.6c-0.1-0.3-0.2-0.5-0.4-0.8c-0.1-0.3-0.3-0.5-0.5-0.7c-0.2-0.2-0.5-0.3-0.7-0.2c-0.3,0.1-0.6,0.3-0.9,0.7
		c-0.3,0.4-0.7,1.1-1.1,2c-1.3,2.8-2.1,5.2-2.6,7.2c-0.5,2-0.7,3.6-0.8,4.6c0,0.5,0,1,0,1.5c0,0.4,0,0.8,0,1.1c0,0.3,0,0.6-0.1,0.8
		c-0.1,0.2-0.2,0.3-0.4,0.3s-0.5,0-0.8,0.1c-0.4,0.1-0.8,0-1.1-0.2c-0.4-0.2-0.7-0.6-0.9-1.2c-0.2-0.6-0.3-1.5-0.3-2.8
		c0-0.6,0.1-1.3,0.2-2.1c-0.4,1.1-0.8,2.1-1,2.8c-0.2,0.8-0.4,1.5-0.5,1.9c-0.1,0.5-0.2,0.8-0.2,1c0,0.2-0.1,0.3-0.1,0.3
		c-0.3,0.2-0.6,0.3-1.1,0.4c-0.4,0.1-0.9,0.1-1.4,0s-0.9-0.3-1.3-0.6c-0.4-0.3-0.6-0.8-0.7-1.3c-0.3-1.4-0.4-2.9-0.4-4.4
		c0-1.5,0-3,0.2-4.3c-0.3,0.6-0.6,1.3-1,2c-0.3,0.7-0.7,1.4-1.1,2s-0.7,1.2-1.1,1.7c-0.4,0.5-0.7,0.9-1,1.1
		c-0.3,0.2-0.7,0.4-1.1,0.3c-0.4,0-0.7-0.1-1.1-0.4c-0.3-0.2-0.6-0.5-0.9-0.9c-0.2-0.4-0.4-0.9-0.4-1.4c0-0.4,0-0.9,0.1-1.6
		c0.1-0.7,0.2-1.4,0.4-2.3c0.2-0.8,0.4-1.7,0.8-2.5s0.7-1.7,1.1-2.4c0.4-0.8,0.8-1.4,1.3-2c0.5-0.6,1-1,1.5-1.2
		c0.4-0.2,0.9-0.3,1.3-0.3c0.4,0,0.8,0.1,1.1,0.3c0.3,0.2,0.6,0.4,0.8,0.7c0.2,0.3,0.4,0.6,0.5,0.8c0.3,0,0.6,0,0.9,0.1
		c0.3,0.1,0.6,0.3,0.9,0.5c0.3,0.2,0.5,0.5,0.6,0.9c0.1,0.4,0.2,0.8,0.2,1.3c-0.1,0.7-0.2,1.5-0.2,2.4c-0.1,0.9-0.2,1.9-0.2,2.8
		c-0.1,1-0.1,1.9-0.2,2.8c0,0.9,0,1.7,0,2.4c0.8-2,1.5-3.8,2.1-5.4c0.3-0.7,0.6-1.3,0.9-2c0.3-0.7,0.6-1.2,0.8-1.8
		c0.1-0.1,0.1-0.2,0.2-0.3c0.1-0.7,0.2-1.4,0.2-2.1c0.1-1.3,0.3-2.5,0.4-3.5c0.1-1,0.2-1.9,0.3-2.6c0.1-0.7,0.1-1.1,0.1-1.1
		c0-0.2,0-0.4,0.2-0.5s0.4-0.3,0.7-0.3c0.3-0.1,0.6,0,0.9,0.1c0.3,0.1,0.6,0.3,0.8,0.7c0.2,0.4,0.4,0.9,0.4,1.5
		c0.1,0.6,0,1.5-0.2,2.5c-0.2,1.2-0.4,2.3-0.6,3.5s-0.3,2.2-0.4,3.1c-0.1,1.1-0.2,2.1-0.3,3c0.3-1.8,0.8-3.5,1.3-5
		c0.2-0.7,0.5-1.3,0.7-2c0.3-0.7,0.5-1.3,0.9-1.9c0.3-0.6,0.7-1.1,1.1-1.6c0.4-0.5,0.8-0.8,1.2-1.1c0.5-0.3,0.9-0.4,1.3-0.3
		c0.4,0.1,0.7,0.2,1,0.5s0.5,0.6,0.7,0.9c0.2,0.4,0.3,0.8,0.4,1.1S390.3,63.7,390.4,64z M372.5,65.5c-0.1-1-0.5-1.3-1.2-1
		c-0.6,0.3-1.3,1.3-2,3c-0.5,1.2-0.9,2.3-1.2,3.3c-0.3,1-0.5,1.9-0.6,2.6c-0.1,0.7-0.2,1.3-0.2,1.7c0,0.4,0,0.6,0.1,0.6
		c0,0,0.2-0.2,0.4-0.6c0.2-0.4,0.5-0.9,0.8-1.5c0.3-0.6,0.6-1.3,1-2c0.4-0.8,0.7-1.5,1.1-2.3c0.4-0.8,0.7-1.5,1-2.2
		C372,66.5,372.3,65.9,372.5,65.5z M427.9,57.7c-0.4,0-0.9,0.1-1.2,0.3c-0.4,0.2-0.5,0.7-0.5,1.4c0,0.7,0.3,1.1,0.8,1.2
		c0.5,0.1,1,0,1.6-0.3c0.3-0.1,0.5-0.4,0.6-0.6c0.1-0.3,0.1-0.5,0.1-0.8c0-0.3-0.2-0.5-0.4-0.8C428.6,57.8,428.3,57.7,427.9,57.7z
		 M459.7,67.1c0,0.3-0.1,0.9-0.1,1.8c-0.1,0.9-0.2,1.9-0.3,3c-0.1,1.2-0.2,2.5-0.4,3.9c-0.1,1.4-0.3,2.9-0.4,4.3
		c-0.1,1.5-0.3,2.9-0.4,4.3c-0.1,1.4-0.3,2.7-0.4,3.9c-0.1,1.2-0.2,2.2-0.3,3c-0.1,0.9-0.2,1.4-0.2,1.8c-0.1,0.7-0.3,1.4-0.4,2.1
		c-0.1,0.8-0.3,1.5-0.6,2.2c-0.3,0.7-0.6,1.3-1.1,1.8c-0.5,0.5-1.1,0.8-1.9,0.9c-0.5,0.1-1.1,0-1.6-0.2c-0.5-0.2-1-0.6-1.3-1.3
		c-0.4-0.7-0.6-1.6-0.8-2.8c-0.2-1.2-0.2-2.7-0.1-4.6c0.1-1.2,0.3-2.4,0.6-3.6c0.3-1.2,0.7-2.3,1.2-3.2c0.5-1,1-1.8,1.6-2.6
		c0.6-0.7,1.3-1.3,2-1.6c0.2-1.9,0.4-3.6,0.6-5.3c0.2-1.6,0.4-3.1,0.5-4.5c-0.3,0.6-0.6,1.3-1,2c-0.3,0.7-0.7,1.4-1.1,2
		c-0.4,0.6-0.7,1.2-1.1,1.7c-0.4,0.5-0.7,0.9-1,1.1c-0.3,0.2-0.7,0.4-1.1,0.3s-0.7-0.1-1.1-0.4c-0.3-0.2-0.6-0.5-0.8-0.9
		c-0.1-0.1-0.1-0.3-0.2-0.4c-0.2,0.6-0.4,1.2-0.6,1.7c-0.2,0.8-0.4,1.5-0.5,1.9s-0.2,0.8-0.2,1c0,0.2-0.1,0.3-0.1,0.3
		c-0.3,0.2-0.6,0.3-1.1,0.4c-0.5,0.1-0.9,0.1-1.4,0c-0.5-0.1-0.9-0.3-1.3-0.6c-0.4-0.3-0.6-0.8-0.7-1.3c-0.2-1.2-0.4-2.5-0.5-3.8
		s-0.1-2.6-0.1-3.9c0-1.3,0.1-2.6,0.3-3.8c0.1-1.2,0.3-2.4,0.6-3.5c-0.1,0-0.4,0.2-0.9,0.7c-0.4,0.5-1,1.3-1.6,2.3
		c-0.6,1-1.2,2.3-1.9,3.9c-0.7,1.6-1.3,3.4-1.9,5.6c-0.2,0.9-0.4,1.6-0.6,2.2c-0.1,0.6-0.2,1-0.3,1.4c0,0.3-0.1,0.6-0.1,0.7
		c0,0.1,0,0.2-0.1,0.3c0,0-0.1,0-0.4,0.1c-0.2,0.1-0.5,0.2-0.8,0.3c-0.3,0.1-0.6,0.1-0.9,0.1c-0.3,0-0.6-0.2-0.9-0.4
		c-0.3-0.2-0.5-0.6-0.7-1.1c-0.2-0.5-0.3-1.2-0.3-2c0-1.3,0-2.7,0.1-4.2c0-0.2,0-0.3,0-0.5c-0.1,0.3-0.2,0.6-0.4,0.9
		c-0.5,1.3-0.9,2.4-1.1,3.2c-0.2,0.8-0.4,1.5-0.5,1.9s-0.2,0.8-0.2,1c0,0.2-0.1,0.3-0.1,0.3c-0.3,0.2-0.7,0.3-1.3,0.3
		c-0.6,0-1.1-0.1-1.7-0.3c-0.6-0.3-1.1-0.8-1.5-1.4c-0.4-0.7-0.6-1.7-0.6-3c0-0.7,0-1.5,0-2.4c-0.1,0.1-0.1,0.2-0.2,0.4
		c-0.5,1.3-0.9,2.4-1.1,3.2c-0.2,0.8-0.4,1.5-0.5,1.9s-0.2,0.8-0.2,1c0,0.2-0.1,0.3-0.1,0.3c-0.1,0.1-0.4,0.2-0.7,0.3
		c-0.3,0.1-0.6,0.1-1,0.1c-0.4,0-0.7-0.1-1.1-0.2c-0.4-0.1-0.7-0.4-1.1-0.7c-0.3-0.3-0.6-0.8-0.8-1.4c-0.2-0.6-0.4-1.4-0.4-2.3
		c-0.1-0.7-0.1-1.5-0.1-2.4c-0.3,0.5-0.6,1-0.9,1.5c-0.5,0.8-1,1.5-1.6,2s-1.2,0.9-1.8,1.1c-0.9,0.2-1.6,0.3-2.2,0.1
		c-0.6-0.2-1.1-0.6-1.5-1.1c-0.3-0.4-0.5-0.8-0.7-1.3c-0.4,1.1-0.9,2.1-1.3,3.2c-0.6,1.3-1.2,2.3-1.8,3.1c-0.2,0.3-0.6,0.6-1.1,0.7
		c-0.5,0.2-1,0.2-1.6,0c-0.6-0.2-1.1-0.5-1.7-1.1c-0.6-0.6-1-1.4-1.5-2.6c-0.3-0.8-0.5-1.7-0.7-2.5c-0.2-0.9-0.3-1.7-0.4-2.5
		s-0.1-1.5-0.1-2.2c0-0.7,0.1-1.2,0.2-1.6c0,0,0.2-0.3,0.6-0.7c0.3-0.4,0.8-0.9,1.2-1.4s1-1.1,1.5-1.7c0.5-0.6,0.9-1.1,1.3-1.5
		c0.5-0.6,0.8-1.1,0.8-1.4c0-0.3,0-0.5-0.2-0.5c-0.2,0-0.5,0.1-0.9,0.3c-0.4,0.2-0.8,0.5-1.2,0.9c-0.1,0.1-0.4,0.5-0.8,1
		c-0.4,0.5-0.8,1.2-1.2,1.9c-0.4,0.7-0.8,1.6-1.2,2.4c-0.4,0.9-0.6,1.7-0.8,2.6c-0.2,1.5-0.4,2.7-0.6,3.7c-0.1,1-0.3,1.8-0.4,2.4
		c-0.1,0.6-0.3,1-0.4,1.2c-0.1,0.2-0.3,0.3-0.6,0.3c-0.3,0.1-0.7,0-1.1-0.1c-0.4-0.2-0.7-0.4-1-0.8c-0.3-0.4-0.6-0.9-0.8-1.4
		s-0.3-1.2-0.3-1.9c0-0.9,0-2,0.1-3.5c0-1.4,0.1-3,0.2-4.7c0.1-1.7,0.2-3.5,0.4-5.3c0.1-1.9,0.3-3.7,0.6-5.4
		c0.2-1.7,0.5-3.4,0.8-4.9c0.3-1.5,0.7-2.8,1.1-3.8c0.2-0.6,0.6-1,1-1.4s0.8-0.5,1.2-0.6c0.4-0.1,0.8-0.1,1.2-0.1
		c0.4,0.1,0.7,0.2,0.9,0.4c0.5,0.4,0.8,0.9,1.1,1.6c0.2,0.6,0.4,1.3,0.4,2.1s0,1.6-0.1,2.4c-0.1,0.8-0.3,1.7-0.6,2.5
		c-0.2,0.5-0.4,1.1-0.7,1.6c-0.3,0.5-0.6,1-0.9,1.4c-0.3,0.4-0.6,0.8-0.9,1.1c-0.3,0.3-0.6,0.5-0.8,0.7c-0.2,1.4-0.3,2.6-0.4,3.6
		c-0.1,1-0.2,1.8-0.2,2.4c0,0.5-0.1,1.1-0.1,1.8c0,0.7-0.1,1.5-0.1,2.3c0.4-1.1,0.9-2.2,1.5-3.3c0.6-1.1,1.3-2.2,2.1-3.2
		c0.7-1,1.4-1.6,2.1-1.9c0.7-0.3,1.3-0.4,1.8-0.4c0.5,0.1,1,0.3,1.4,0.7s0.7,0.8,0.9,1.1c0.2,0.6,0.2,1.2,0,2s-0.7,1.6-1.3,2.4
		c-0.6,0.8-1.3,1.6-2,2.3c-0.8,0.7-1.6,1.3-2.4,1.7c0,0.3,0.1,0.8,0.2,1.4c0.2,0.6,0.4,1.2,0.6,1.9c0.2,0.7,0.5,1.4,0.8,2.1
		c0.3,0.7,0.6,1.3,0.9,1.9c0.3,0.5,0.5,1,0.8,1.3c0.2,0.3,0.4,0.4,0.6,0.2c0.3-0.3,0.7-1,1.2-2c0.5-1,0.9-2.1,1.4-3.4
		c0.5-1.2,0.9-2.4,1.3-3.7c0.1-0.7,0.2-1.4,0.3-2.1c0.3-1.3,0.7-2.4,1.1-3.4c0.4-1,0.9-1.8,1.5-2.4c0.5-0.6,1.1-1,1.6-1.2
		c0.4-0.1,0.9-0.2,1.3-0.2c0.4,0,0.8,0.2,1.2,0.5c0.3,0.3,0.6,0.7,0.8,1.3c0.2,0.6,0.2,1.3,0.1,2.3c-0.1,1-0.3,1.8-0.6,2.7
		c-0.3,0.8-0.7,1.5-1.1,2c-0.4,0.5-0.9,0.9-1.3,1.1c-0.5,0.2-0.9,0.1-1.3-0.3c-0.3,1.8-0.4,3.2-0.2,4c0.2,0.9,0.5,1.3,0.8,1.2
		c0.3,0,0.7-0.2,1.1-0.7s0.8-0.9,1.2-1.6c0.4-0.6,0.8-1.3,1.1-2.1c0.4-0.8,0.7-1.5,1-2.3c0.3-0.7,0.6-1.4,0.8-2
		c0.1-1.4,0.3-2.8,0.4-4.2c0.2-1.5,0.4-3.1,0.6-4.6c0.2-1.5,0.4-3,0.7-4.4c0.2-1.4,0.5-2.7,0.7-4c-1.4,0.4-2.7,0.8-3.9,1.2
		s-2.2,0.8-3.1,1.2c-0.9,0.4-1.7,0.7-2.3,1.1c-0.7,0.3-1.2,0.6-1.6,0.8c-0.2,0.1-0.5,0.1-0.9,0c-0.3-0.1-0.6-0.3-0.8-0.5
		s-0.2-0.6,0-1c0.2-0.4,0.7-0.9,1.4-1.4c0.6-0.4,1.4-0.8,2.4-1.2c1-0.4,2-0.7,3.1-1.1c1.1-0.3,2.1-0.7,3.2-0.9
		c1.1-0.3,2-0.5,2.8-0.7c0.2-1.1,0.4-2,0.5-2.7c0.1-0.7,0.2-1.1,0.3-1.2c0.1-0.5,0.4-0.8,0.8-0.9c0.4-0.1,0.8-0.2,1.2-0.1
		c0.4,0.1,0.8,0.2,1,0.5c0.3,0.2,0.4,0.5,0.3,0.7c-0.1,0.1-0.1,0.4-0.2,1c-0.1,0.6-0.2,1.3-0.4,2.2c1.2-0.1,2.3-0.1,3.3-0.1
		s2,0,2.8,0.1c0.8,0,1.6,0.1,2.2,0.2c0.6,0.1,1.1,0.2,1.4,0.2c0.5,0.1,0.9,0.2,1.2,0.3c0.2,0.1,0.4,0.3,0.4,0.4c0,0.1,0,0.3-0.1,0.4
		c-0.1,0.1-0.2,0.2-0.3,0.2c-0.1,0-0.3,0-0.6-0.1c-0.3,0-0.7-0.1-1.2-0.1c-0.5,0-1.3,0-2.1,0c-0.9,0-2,0.1-3.3,0.2
		c-1.5,0.1-2.8,0.3-4.1,0.6c-0.4,1.7-0.8,3.6-1.2,5.7s-0.7,4.4-1,6.8c-0.3,2.4-0.5,4.8-0.6,7.3c-0.1,2.5-0.1,4.9,0,7.2
		c0.8-2,1.5-3.8,2.1-5.4c0.3-0.7,0.6-1.3,0.9-2c0.3-0.7,0.6-1.2,0.8-1.8c0-0.1,0.1-0.1,0.1-0.2c0.1-1.8,0.3-3.8,0.5-6
		c0.4-0.4,0.8-0.6,1.2-0.6c0.4,0,0.8,0.1,1.2,0.3c0.4,0.2,0.7,0.4,0.9,0.7c0.2,0.3,0.4,0.5,0.4,0.7c0,0.1,0,0.5-0.1,1.1
		c0,0.6-0.1,1.3-0.1,2.2c-0.1,0.9-0.1,1.8-0.2,2.8c-0.1,1-0.1,2.1-0.2,3.1c-0.1,1-0.1,2-0.2,2.8c0,0.9-0.1,1.6-0.1,2.2
		c0-0.1,0.2-0.5,0.4-1c0.2-0.6,0.5-1.3,0.8-2.1c0.3-0.8,0.7-1.7,1.1-2.6c0.4-0.9,0.8-1.7,1.1-2.5c0.3-0.7,0.6-1.2,0.8-1.7
		c0-0.6,0.1-1.2,0.1-1.7c0.1-1,0.1-1.6,0-1.9c0.2-0.4,0.5-0.7,0.9-0.8c0.4-0.1,0.8-0.1,1.2,0s0.8,0.3,1.1,0.6
		c0.3,0.3,0.5,0.7,0.5,1.2c0,1.2,0.1,2.2,0,3.2c0,0.9-0.1,1.8-0.2,2.5c-0.1,0.8-0.2,1.5-0.3,2.2c0.8-1.9,1.6-3.7,2.4-5.3
		c0.3-0.7,0.7-1.4,1.1-2.1c0.4-0.7,0.8-1.4,1.2-2c0.4-0.6,0.8-1.1,1.3-1.6c0.4-0.5,0.9-0.8,1.3-1c0.6-0.3,1.1-0.5,1.7-0.5
		c0.5,0,1,0.2,1.3,0.5c0.4,0.3,0.6,0.8,0.7,1.5c0.1,0.7,0.1,1.5-0.1,2.6c0,0.2-0.1,0.6-0.1,1.2c-0.1,0.6-0.2,1.3-0.2,2.1
		c-0.1,0.8-0.2,1.6-0.3,2.6c-0.1,0.9-0.2,1.8-0.2,2.7c-0.1,0.9-0.1,1.7-0.1,2.4c0,0.7,0,1.3,0,1.7c0.8-2,1.5-3.8,2.2-5.4
		c0.3-0.7,0.6-1.3,0.9-2c0.3-0.7,0.6-1.2,0.8-1.8c0.1-0.1,0.1-0.3,0.2-0.4c0.3-0.7,0.6-1.5,0.9-2.1c0.4-0.8,0.8-1.4,1.3-2
		c0.5-0.6,1-1,1.5-1.2c0.5-0.2,0.9-0.3,1.3-0.3c0.4,0,0.8,0.1,1.1,0.3c0.3,0.2,0.6,0.4,0.8,0.7c0.2,0.3,0.4,0.6,0.5,0.8
		c0.3,0,0.6,0,0.9,0.1c0.3,0.1,0.6,0.3,0.9,0.5c0.3,0.2,0.5,0.5,0.6,0.9C459.7,66.1,459.8,66.6,459.7,67.1z M412.3,70.1
		c0.3,0.2,0.5,0.2,0.8,0c0.3-0.2,0.5-0.5,0.7-0.8c0.2-0.4,0.4-0.8,0.6-1.3c0.1-0.5,0.3-0.9,0.3-1.3c0.2-1.2,0.3-2,0.2-2.2
		c-0.1-0.2-0.3-0.1-0.6,0.4c-0.3,0.5-0.6,1.2-1,2.1S412.6,69,412.3,70.1z M397.7,57.8c0.3-0.3,0.5-0.7,0.8-1.2
		c0.3-0.5,0.5-1,0.7-1.6c0.3-1.2,0.5-2.3,0.4-3.2c0-0.9-0.1-1.7-0.3-2.3c-0.3,0.9-0.6,2.2-0.9,3.6C398.2,54.6,397.9,56.2,397.7,57.8
		z M454.6,83c-0.3,0.1-0.5,0.4-0.8,0.8c-0.3,0.4-0.5,0.9-0.8,1.5c-0.2,0.6-0.5,1.3-0.7,2c-0.2,0.7-0.4,1.5-0.5,2.3
		c-0.2,1.3-0.3,2.4-0.3,3.4s0,1.8,0.1,2.5c0.1,0.7,0.3,1.1,0.4,1.4c0.2,0.3,0.4,0.3,0.6,0.2c0.2-0.2,0.4-0.6,0.5-1.1
		c0.1-0.6,0.3-1.3,0.4-2.1c0.1-0.8,0.3-1.8,0.4-2.7c0.1-1,0.2-2,0.3-2.9c0.1-1,0.1-1.9,0.2-2.8C454.5,84.3,454.5,83.6,454.6,83z
		 M456.3,65.5c-0.1-0.5-0.2-0.8-0.4-1c-0.2-0.2-0.4-0.2-0.7,0c-0.3,0.1-0.6,0.5-1,1c-0.3,0.5-0.7,1.2-1,2c-0.5,1.2-0.9,2.3-1.2,3.3
		c-0.3,1-0.5,1.9-0.7,2.6c-0.1,0.7-0.2,1.3-0.2,1.7c0,0.4,0,0.6,0.1,0.6c0,0,0.2-0.2,0.4-0.6c0.2-0.4,0.5-0.9,0.8-1.5
		c0.3-0.6,0.6-1.3,1-2c0.4-0.8,0.7-1.5,1.1-2.3s0.7-1.5,1-2.2C455.8,66.5,456.1,65.9,456.3,65.5z"/>
	<rect id="Line_5_" x="315.7" y="43.8" class="st0" width="3.1" height="45.2"/>
	<path id="diamond_girl_5_" class="st0" d="M126.5,55.4c-1-0.7-2.2-1.1-3.8-1.1c-3.6,0-5.4,2.4-5.4,7.2v20.9c0,4.8,2.4,7.2,7.1,7.2
		c4.7,0,7.1-2.4,7.1-7.2V43.8h-4.9V55.4z M126.5,82.4c0,1.5-0.7,2.3-2.2,2.3c-1.4,0-2.1-0.8-2.1-2.3V61.5c0-1.5,0.7-2.3,2.2-2.3
		c1.4,0,2.1,0.8,2.1,2.3V82.4z M135.6,45.7h5.3V51h-5.3V45.7z M135.8,54.9h4.9V89h-4.9V54.9z M152.1,54.3c-4.7,0-7.1,2.4-7.1,7.2
		v4.6h4.9v-4.6c0-1.5,0.7-2.3,2.1-2.3h0c1.4,0,2.1,0.8,2.1,2.3v9.1c-1-0.7-2.2-1.1-3.8-1.1c-3.6,0-5.4,2.4-5.4,7.2v5.7
		c0,4.8,2.4,7.2,7.1,7.2c4.7,0,7.1-2.4,7.1-7.2V61.5C159.2,56.7,156.8,54.3,152.1,54.3z M154.3,82.4c0,1.5-0.7,2.3-2.1,2.3
		c-1.4,0-2.2-0.8-2.2-2.3v-5.7c0-1.5,0.7-2.3,2.2-2.3c1.4,0,2.1,0.8,2.1,2.3V82.4z M186.9,61.5V89H182V61.5c0-1.5-0.7-2.3-2.1-2.3h0
		c-1.3,0-2,0.7-2.1,2V89h-4.9V61.2c-0.1-1.3-0.8-2-2.1-2h0c-1.4,0-2.1,0.8-2.1,2.3V89h-4.9V61.5c0-4.8,2.4-7.2,7.1-7.2
		c1.9,0,3.5,0.4,4.6,1.2c1.1-0.8,2.7-1.2,4.6-1.2C184.5,54.3,186.9,56.7,186.9,61.5z M198.3,54.3c-4.7,0-7.1,2.4-7.1,7.2v20.9
		c0,4.8,2.4,7.2,7.1,7.2c4.7,0,7.1-2.4,7.1-7.2V61.5C205.4,56.7,203,54.3,198.3,54.3z M200.5,82.4c0,1.5-0.7,2.3-2.2,2.3
		c-1.4,0-2.1-0.8-2.1-2.3V61.5c0-1.5,0.7-2.3,2.1-2.3h0c1.4,0,2.1,0.8,2.1,2.3V82.4z M223.9,61.5V89H219V61.5c0-1.5-0.7-2.3-2.1-2.3
		h0c-1.4,0-2.1,0.8-2.1,2.3V89h-4.9V61.5c0-4.8,2.4-7.2,7.1-7.2C221.6,54.3,223.9,56.7,223.9,61.5z M237.5,55.4
		c-1-0.7-2.2-1.1-3.8-1.1c-3.6,0-5.4,2.4-5.4,7.2v20.9c0,4.8,2.4,7.2,7.1,7.2c4.7,0,7.1-2.4,7.1-7.2V43.8h-4.9V55.4z M237.5,82.4
		c0,1.5-0.7,2.3-2.2,2.3c-1.4,0-2.1-0.8-2.1-2.3V61.5c0-1.5,0.7-2.3,2.2-2.3c1.4,0,2.1,0.8,2.1,2.3V82.4z M263.2,54.3
		c-4.7,0-7.1,2.4-7.1,7.2v20.9c0,4.8,2.4,7.2,7.1,7.2c0.8,0,1.5-0.2,2.2-0.7V93c0,1.5-0.7,2.3-2.1,2.3c-1.4,0-2.2-0.8-2.2-2.3v-1.2
		h-4.9V93c0,4.8,2.4,7.2,7.1,7.2c4.7,0,7.1-2.4,7.1-7.2V61.5C270.3,56.7,267.9,54.3,263.2,54.3z M265.4,82.4c0,1.5-0.7,2.3-2.2,2.3
		c-1.4,0-2.1-0.8-2.1-2.3V61.5c0-1.5,0.7-2.3,2.1-2.3h0c1.4,0,2.1,0.8,2.1,2.3V82.4z M274.5,45.7h5.3V51h-5.3V45.7z M274.7,54.9h4.9
		V89h-4.9V54.9z M291,54.3L291,54.3l0.1,4.9H291c-1.4,0-2.1,0.8-2.1,2.3V89h-4.9V61.5C283.9,56.7,286.3,54.3,291,54.3z M299.3,43.8
		V89h-4.9V43.8H299.3z"/>
	<g id="Icon_6_">
		<g id="Diamonds_5_">
			<path id="Diamond_6_" class="st0" d="M101,62.7c-1.1,1.4-2.2,2.7-3.2,4.1c-1.2,1.5-2.3,2.9-3.5,4.4c-0.9,1.2-1.9,2.4-2.8,3.6
				c-0.9,1.2-1.9,2.4-2.9,3.5c-0.7,0.9-1.4,1.9-2.2,2.8c-0.9,1.2-1.8,2.3-2.8,3.4c-0.9,1.2-1.9,2.4-2.8,3.6
				c-0.8,1.1-1.7,2.1-2.5,3.1c-0.8,1-1.6,2.1-2.4,3.1c-0.3,0.4-0.6,0.8-1,1.2c-0.1,0.1-0.3,0.2-0.5,0.2c-0.5,0-1,0-1.5,0
				c-0.8,0-1.6,0-2.4,0c-0.6,0-1.2,0-1.9,0c-0.1,0-0.3,0-0.4,0c-0.1,0-0.2,0-0.4-0.1c0.3-0.3,0.5-0.6,0.7-0.9
				c0.7-0.9,1.4-1.8,2.1-2.7c0.8-1,1.6-2,2.4-3.1c0.9-1.1,1.8-2.3,2.7-3.4c1-1.3,2-2.5,3-3.8c0.9-1.2,1.9-2.4,2.8-3.6
				c0.8-1,1.6-2.1,2.5-3.1c1-1.2,1.9-2.5,2.9-3.7c0.9-1.1,1.8-2.2,2.6-3.4c1-1.3,1.9-2.5,2.9-3.8c0.6-0.8,1.2-1.6,1.9-2.3
				c0.2-0.2,0.1-0.4,0-0.6c-0.6-1-1.2-2-1.8-2.9c-0.5-0.9-1-1.7-1.6-2.6c-0.6-1-1.2-2-1.8-2.9c-0.7-1.1-1.3-2.2-2-3.2
				c-0.6-1-1.3-2-2-3.1c-0.5-0.8-1-1.6-1.5-2.5c-0.1-0.3-0.3-0.3-0.6-0.3c-1.9,0-3.9,0-5.8,0c-0.2,0-0.4-0.1-0.5-0.3
				c-0.6-0.8-1.2-1.5-1.8-2.3c-0.7-0.9-1.5-1.8-2.2-2.7c0-0.1,0-0.2-0.1-0.3c0.1,0,0.2,0,0.2-0.1c0.4,0,0.8,0,1.2,0c0.3,0,0.7,0,1,0
				c0.7,0,1.3,0.1,2,0.1c2.4,0,4.7,0,7.1,0c0.7,0,1.4,0.1,2.1,0c0.6-0.1,0.8,0.3,1,0.6c0.5,0.8,0.9,1.6,1.4,2.4
				c0.4,0.7,0.8,1.5,1.3,2.2c0.4,0.6,0.7,1.2,1.1,1.8c0.3,0.5,0.6,1.1,1,1.6c0.5,0.8,0.9,1.5,1.4,2.3c0.7,1.1,1.3,2.2,2,3.4
				c0.3,0.6,0.7,1.2,1.1,1.7c0.4,0.7,0.8,1.4,1.2,2.2c0.4,0.6,0.7,1.2,1.1,1.8c0.5,0.8,0.9,1.6,1.3,2.3c0.3,0.5,0.6,1,0.9,1.6
				C101.1,62.3,101.1,62.6,101,62.7z M25.3,44.6c0.3-0.6,0.7-0.8,1.5-0.8c6.8,0,13.5,0,20.3,0c3.3,0,6.6,0,9.8,0c0.6,0,1.2,0,1.9,0
				c-0.2-0.2-0.3-0.4-0.4-0.5c-1-1.3-2-2.6-3.1-3.9c-0.2-0.3-0.4-0.6-0.6-0.8c-0.3-0.4-0.6-0.3-1-0.3c-9.8,0-19.6,0-29.4,0
				c-0.5,0-1.1-0.1-1.6,0c-0.2,0-0.5,0.2-0.6,0.3c-0.6,0.9-1.1,1.9-1.7,2.9c-0.8,1.4-1.7,2.7-2.5,4.1c-0.6,1-1.2,2.1-1.8,3.2
				c-0.5,0.9-1,1.8-1.6,2.7c-0.4,0.6-0.8,1.3-1.2,1.9c-0.5,0.8-0.9,1.5-1.3,2.3c-0.3,0.5-0.6,1.1-0.9,1.6c-0.4,0.7-0.9,1.5-1.3,2.2
				c-0.5,0.9-1.1,1.8-1.6,2.8c-0.1,0.1-0.1,0.4,0,0.5c0.2,0.3,0.5,0.6,0.8,1c0.7,0.9,1.5,1.9,2.2,2.8c0.5,0.6,1,1.3,1.6,2
				c0.2-0.2,0.3-0.4,0.5-0.6c1-1.2,2-2.5,3-3.7c0.1-0.2,0.1-0.3,0-0.5c-0.4-0.5-0.8-1-1.2-1.5c-0.2-0.2-0.2-0.5-0.1-0.8
				c0.5-0.8,1-1.6,1.5-2.4c0.5-0.7,0.9-1.5,1.4-2.2c0.7-1.2,1.5-2.4,2.2-3.6c0.5-0.8,1.1-1.7,1.6-2.5c0.6-0.9,1.1-1.9,1.7-2.8
				C24,46.7,24.7,45.7,25.3,44.6z M57,110c-0.3,0-0.5,0.1-0.7,0.3c-0.5,0.7-1,1.3-1.6,2.1c-0.3-0.3-0.5-0.6-0.7-0.9
				c-0.7-0.9-1.5-1.9-2.2-2.8c-0.8-1-1.5-2-2.3-2.9c-0.9-1.2-1.8-2.3-2.8-3.5c-0.8-1.1-1.7-2.2-2.5-3.2c-1-1.3-2-2.5-2.9-3.8
				c-1.1-1.4-2.2-2.8-3.2-4.1c-1.1-1.4-2.1-2.7-3.2-4.1c-1-1.3-2-2.5-3-3.8c-0.9-1.2-1.9-2.4-2.8-3.6c-1-1.3-2-2.6-3.1-4
				c-0.2-0.2-0.4-0.2-0.6-0.1c-0.5,0.6-1,1.3-1.5,1.9c-0.6,0.7-1.1,1.4-1.7,2.2c-0.2,0.3-0.2,0.5,0,0.8c0.7,0.9,1.4,1.8,2.1,2.6
				c0.6,0.8,1.3,1.6,1.9,2.4c0.9,1.1,1.7,2.2,2.6,3.3c0.5,0.7,1.1,1.3,1.6,2c0.8,1,1.6,2.1,2.5,3.1c0.7,0.9,1.5,1.8,2.2,2.7
				c0.9,1.1,1.7,2.2,2.6,3.3c0.7,0.9,1.4,1.7,2.1,2.6c0.8,1,1.5,2,2.3,2.9c0.7,0.9,1.4,1.8,2.1,2.7c0.8,1,1.5,1.9,2.3,2.9
				c0.6,0.8,1.3,1.6,1.9,2.4c0.6,0.8,1.3,1.6,1.9,2.4c0.8,1.1,1.7,2.1,2.5,3.2c0.5,0.7,1.1,1.4,1.6,2c0.2,0.3,0.4,0.2,0.6,0
				c0.2-0.2,0.4-0.5,0.6-0.7c0.6-0.8,1.2-1.5,1.8-2.3c0.8-1,1.5-1.9,2.3-2.8c0.6-0.8,1.3-1.6,1.9-2.4c0.6-0.8,1.2-1.5,1.8-2.3
				c0.1-0.1,0.1-0.3,0.1-0.3c-0.1-0.1-0.2-0.2-0.4-0.2C61.1,110,59,110,57,110z"/>
			<path id="Color_Diamond_6_" class="st0" d="M52.4,34c-2,0-4.1,0-6.1,0c-0.1,0-0.3-0.1-0.4-0.2c0-0.1,0-0.2,0.1-0.3
				c0.6-0.8,1.2-1.5,1.8-2.3c0.6-0.8,1.3-1.6,1.9-2.4c0.8-1,1.5-1.9,2.3-2.8c0.6-0.8,1.2-1.5,1.8-2.3c0.2-0.2,0.4-0.5,0.6-0.7
				c0.2-0.2,0.4-0.3,0.6,0c0.5,0.7,1.1,1.4,1.6,2c0.8,1.1,1.7,2.1,2.5,3.2c0.6,0.8,1.3,1.6,1.9,2.4c0.6,0.8,1.3,1.6,1.9,2.4
				c0.8,1,1.5,1.9,2.3,2.9c0.7,0.9,1.4,1.8,2.1,2.7c0.8,1,1.5,2,2.3,2.9c0.7,0.9,1.4,1.7,2.1,2.6c0.9,1.1,1.7,2.2,2.6,3.3
				c0.7,0.9,1.5,1.8,2.2,2.7c0.8,1,1.6,2.1,2.5,3.1c0.5,0.7,1.1,1.3,1.6,2c0.9,1.1,1.7,2.2,2.6,3.3c0.6,0.8,1.3,1.6,1.9,2.4
				c0.7,0.9,1.4,1.8,2.1,2.6c0.2,0.3,0.2,0.5,0,0.8c-0.6,0.7-1.1,1.4-1.7,2.2c-0.5,0.6-1,1.3-1.5,1.9c-0.1,0.2-0.4,0.1-0.6-0.1
				c-1-1.3-2-2.6-3.1-4c-0.9-1.2-1.9-2.4-2.8-3.6c-1-1.3-2-2.5-3-3.8c-1.1-1.4-2.1-2.7-3.2-4.1c-1.1-1.4-2.2-2.8-3.2-4.1
				c-1-1.3-2-2.5-2.9-3.8c-0.8-1.1-1.7-2.2-2.5-3.2c-0.9-1.2-1.8-2.3-2.8-3.5c-0.8-1-1.5-2-2.3-2.9c-0.7-0.9-1.5-1.9-2.2-2.8
				c-0.2-0.3-0.5-0.6-0.7-0.9c-0.6,0.7-1.1,1.4-1.6,2.1C52.9,33.9,52.7,34,52.4,34z M40.6,48.2c-0.6,0-1.2,0-1.9,0
				c-0.8,0-1.6,0-2.4,0c-0.5,0-1,0-1.5,0c-0.2,0-0.4,0.1-0.5,0.2c-0.3,0.4-0.7,0.8-1,1.2c-0.8,1-1.6,2.1-2.4,3.1
				c-0.8,1.1-1.7,2.1-2.5,3.1c-0.9,1.2-1.9,2.4-2.8,3.6c-0.9,1.2-1.8,2.3-2.8,3.4c-0.7,0.9-1.4,1.9-2.2,2.8
				c-0.9,1.2-1.9,2.4-2.9,3.5c-0.9,1.2-1.9,2.4-2.8,3.6c-1.2,1.5-2.3,2.9-3.5,4.4c-1.1,1.4-2.2,2.7-3.2,4.1c-0.1,0.1-0.1,0.4,0,0.5
				c0.3,0.5,0.6,1,0.9,1.6c0.5,0.8,0.9,1.6,1.3,2.3c0.4,0.6,0.7,1.2,1.1,1.8c0.4,0.7,0.8,1.4,1.2,2.2c0.3,0.6,0.7,1.2,1.1,1.7
				c0.7,1.1,1.3,2.2,2,3.4c0.5,0.8,0.9,1.5,1.4,2.3c0.3,0.5,0.6,1.1,1,1.6c0.4,0.6,0.7,1.2,1.1,1.8c0.4,0.7,0.8,1.5,1.3,2.2
				c0.5,0.8,0.9,1.6,1.4,2.4c0.2,0.4,0.4,0.7,1,0.6c0.7-0.1,1.4,0,2.1,0c2.4,0,4.7,0,7.1,0c0.7,0,1.3,0,2,0.1c0.3,0,0.7,0,1,0
				c0.4,0,0.8,0,1.2,0c0.1,0,0.2,0,0.2-0.1c0-0.1,0-0.2-0.1-0.3c-0.7-0.9-1.5-1.8-2.2-2.7c-0.6-0.8-1.2-1.5-1.8-2.3
				c-0.2-0.2-0.3-0.3-0.5-0.3c-1.9,0-3.9,0-5.8,0c-0.3,0-0.4-0.1-0.6-0.3c-0.5-0.8-1-1.6-1.5-2.5c-0.6-1-1.3-2-2-3.1
				c-0.7-1.1-1.3-2.1-2-3.2c-0.6-1-1.2-2-1.8-2.9c-0.5-0.9-1-1.7-1.6-2.6c-0.6-1-1.2-1.9-1.8-2.9c-0.1-0.2-0.2-0.4,0-0.6
				c0.6-0.8,1.2-1.6,1.9-2.3c1-1.3,1.9-2.5,2.9-3.8c0.9-1.1,1.8-2.2,2.6-3.4c1-1.2,1.9-2.5,2.9-3.7c0.8-1,1.6-2.1,2.5-3.1
				c0.9-1.2,1.9-2.4,2.8-3.6c1-1.3,2-2.5,3-3.8c0.9-1.1,1.8-2.3,2.7-3.4c0.8-1,1.6-2,2.4-3.1c0.7-0.9,1.4-1.8,2.1-2.7
				c0.2-0.3,0.4-0.5,0.7-0.9c-0.2,0-0.3-0.1-0.4-0.1C40.8,48.2,40.7,48.2,40.6,48.2z M101.1,81.3c-0.2-0.3-0.5-0.6-0.8-1
				c-0.7-0.9-1.5-1.9-2.2-2.8c-0.5-0.6-1-1.3-1.6-2c-0.2,0.2-0.3,0.4-0.5,0.6c-1,1.2-2,2.5-3,3.7c-0.1,0.2-0.1,0.3,0,0.5
				c0.4,0.5,0.8,1,1.2,1.5c0.2,0.2,0.2,0.5,0.1,0.8c-0.5,0.8-1,1.6-1.5,2.4c-0.5,0.7-0.9,1.5-1.4,2.2c-0.7,1.2-1.5,2.4-2.2,3.6
				c-0.5,0.8-1.1,1.7-1.6,2.5c-0.6,0.9-1.1,1.9-1.7,2.8c-0.6,1-1.3,2.1-1.9,3.1c-0.3,0.6-0.7,0.8-1.5,0.8c-6.8,0-13.5,0-20.3,0
				c-3.3,0-6.6,0-9.8,0c-0.6,0-1.2,0-1.9,0c0.2,0.2,0.3,0.4,0.4,0.5c1,1.3,2,2.6,3.1,3.9c0.2,0.3,0.4,0.6,0.6,0.8
				c0.3,0.4,0.6,0.3,1,0.3c9.8,0,19.6,0,29.4,0c0.5,0,1.1,0.1,1.6,0c0.2,0,0.5-0.2,0.6-0.3c0.6-0.9,1.1-1.9,1.7-2.9
				c0.8-1.4,1.7-2.7,2.5-4.1c0.6-1,1.2-2.1,1.8-3.2c0.5-0.9,1-1.8,1.6-2.7c0.4-0.6,0.8-1.3,1.2-1.9c0.5-0.8,0.9-1.5,1.3-2.3
				c0.3-0.5,0.6-1.1,0.9-1.6c0.4-0.7,0.9-1.5,1.3-2.2c0.5-0.9,1.1-1.8,1.6-2.8C101.2,81.7,101.1,81.4,101.1,81.3z"/>
		</g>
		<path id="dg_5_" class="st0" d="M61.7,58.4c-3.7,0-5.5,1.8-5.5,5.5v16c0,3.7,1.8,5.5,5.5,5.5c0.6,0,1.2-0.2,1.7-0.5v3.2
			c0,1.2-0.6,1.8-1.7,1.8c-1.1,0-1.7-0.6-1.7-1.8v-0.9h-3.9v0.9c0,3.7,1.8,5.5,5.5,5.5c3.7,0,5.5-1.8,5.5-5.5V63.9
			C67.2,60.3,65.4,58.4,61.7,58.4z M63.4,80c0,1.2-0.6,1.7-1.7,1.7c-1.1,0-1.7-0.6-1.7-1.8v-16c0-1.2,0.6-1.8,1.7-1.8h0
			c1.1,0,1.7,0.6,1.7,1.8V80z M49.3,59.3c-0.8-0.6-1.8-0.8-3-0.8c-2.8,0-4.2,1.8-4.2,5.5v16c0,3.7,1.8,5.5,5.5,5.5
			c3.7,0,5.5-1.8,5.5-5.5V50.4h-3.9V59.3z M49.3,79.9c0,1.2-0.6,1.8-1.7,1.8c-1.1,0-1.7-0.6-1.7-1.8v-16c0-1.2,0.6-1.8,1.7-1.8
			c1.1,0,1.7,0.6,1.7,1.8V79.9z"/>
	</g>
</g>
</svg>
